<?xml version="1.0" encoding="UTF-8" standalone="no"?>
<!-- Created with Inkscape (http://www.inkscape.org/) -->

<svg
   width="26"
   height="26"
   viewBox="0 0 6.8791666 6.8791669"
   version="1.1"
   id="svg5"
   inkscape:version="1.1 (c4e8f9ed74, 2021-05-24)"
   sodipodi:docname="btn-red.svg"
   xmlns:inkscape="http://www.inkscape.org/namespaces/inkscape"
   xmlns:sodipodi="http://sodipodi.sourceforge.net/DTD/sodipodi-0.dtd"
   xmlns="http://www.w3.org/2000/svg"
   xmlns:svg="http://www.w3.org/2000/svg">
  <sodipodi:namedview
     id="namedview7"
     pagecolor="#ffffff"
     bordercolor="#666666"
     borderopacity="1.0"
     inkscape:pageshadow="2"
     inkscape:pageopacity="0.0"
     inkscape:pagecheckerboard="0"
     inkscape:document-units="mm"
     showgrid="false"
     units="px"
     showborder="true"
     inkscape:showpageshadow="false"
     inkscape:zoom="17.275421"
     inkscape:cx="13.342656"
     inkscape:cy="21.446655"
     inkscape:window-width="1920"
     inkscape:window-height="1135"
     inkscape:window-x="1366"
     inkscape:window-y="29"
     inkscape:window-maximized="1"
     inkscape:current-layer="layer1"
     inkscape:snap-global="false" />
  <defs
     id="defs2" />
  <g
     inkscape:label="Layer 1"
     inkscape:groupmode="layer"
     id="layer1">
    <circle
       style="fill:#ff267c;stroke:none;stroke-width:0.295336;stroke-linecap:round;stop-color:#000000;fill-opacity:0"
       id="path846"
       cx="3.4395833"
       cy="3.4395833"
       r="2.3812499" />
    <path
       d="M 3.4395829,1.3012143 A 1.9245321,1.9245321 0 0 0 1.5150508,3.2257464 c 0,0.6479258 0.3271704,1.2445308 0.8553476,1.5973617 V 5.5779523 H 2.7980723 V 4.9364416 H 3.225746 V 5.5779523 H 3.6534198 V 4.9364416 H 4.0810941 V 5.5779523 H 4.5087677 V 4.8209697 C 5.036945,4.4681388 5.3641158,3.8672571 5.3641158,3.2257464 A 1.9245321,1.9245321 0 0 0 3.4395829,1.3012143 M 2.5842353,3.2257464 A 0.42767382,0.42767382 0 0 1 3.011909,3.6534201 0.42767382,0.42767382 0 0 1 2.5842353,4.081094 0.42767382,0.42767382 0 0 1 2.1565614,3.6534201 0.42767382,0.42767382 0 0 1 2.5842353,3.2257464 m 1.7106955,0 A 0.42767382,0.42767382 0 0 1 4.7226052,3.6534201 0.42767382,0.42767382 0 0 1 4.2949308,4.081094 0.42767382,0.42767382 0 0 1 3.8672568,3.6534201 0.42767382,0.42767382 0 0 1 4.2949308,3.2257464 M 3.4395829,3.8672571 3.7603383,4.5087679 H 3.1188276 Z"
       id="path822"
       style="fill:#ff267c;fill-opacity:1;stroke-width:0.213838" />
  </g>
</svg>
